<?xml version="1.0" encoding="UTF-8"?>
<!DOCTYPE svg PUBLIC "-//W3C//DTD SVG 1.1//EN" "http://www.w3.org/Graphics/SVG/1.1/DTD/svg11.dtd">
<!-- Creator: CorelDRAW 2021 (64-Bit) -->
<svg xmlns="http://www.w3.org/2000/svg" xml:space="preserve" width="66.1668mm" height="39.2944mm" version="1.1" style="shape-rendering:geometricPrecision; text-rendering:geometricPrecision; image-rendering:optimizeQuality; fill-rule:evenodd; clip-rule:evenodd"
viewBox="0 0 3031.56 1800.35"
 xmlns:xlink="http://www.w3.org/1999/xlink"
 xmlns:xodm="http://www.corel.com/coreldraw/odm/2003">
 <defs>
  <style type="text/css">
   <![CDATA[
    .fil0 {fill:url(#id0)}
   ]]>
  </style>
  <linearGradient id="id0" gradientUnits="userSpaceOnUse" x1="-0" y1="900.17" x2="3031.56" y2="900.17">
   <stop offset="0" style="stop-opacity:1; stop-color:#7C3AED"/>
   <stop offset="1" style="stop-opacity:1; stop-color:#3C00A3"/>
  </linearGradient>
 </defs>
 <g id="Layer_x0020_1">
  <metadata id="CorelCorpID_0Corel-Layer"/>
  <path class="fil0" d="M838.47 1189.62c34.51,56.9 134.04,157.28 169.15,196.7 19.69,22.12 53.22,54.28 85.6,92.98 243.64,291.03 205.13,317.47 551.71,317.36 359.18,-0.12 618.74,36.87 933.1,-120.84 65.87,-33.06 169.05,-108.45 191.89,-148.51 63.94,-306.46 55.21,-624.21 -134.67,-873.59l-136.2 -111.57c54.96,103.18 96.07,138.99 109.9,290.81 31.69,348.07 -169.22,611.06 -563.17,624.81 -75.37,2.63 -335.25,10.69 -390.79,-11.19 -60.11,-23.69 -154.23,-157.34 -197.19,-202.68l-190.58 -206.63c-20.39,-26 -148.02,-180.36 -183.43,-194.85 -30.07,0 -26.57,9.04 -21.8,-16.83l-9 -7.23c-25.59,17.83 -8.83,7.9 -44.42,-9.81 85.15,78.27 37.99,42.33 70.05,85.13 -22.61,53.59 -98.16,134.57 -140.46,185.39 -43.59,52.37 -31.37,59.01 -58.22,110.46l32.7 0.36c34.51,16.71 9.41,-4.27 36.98,32.94l-74.1 -17.54c-2.31,-0.7 -6.77,-2.14 -8.85,-2.84l-28.21 -12.83zm-148.18 -796.43c-12.36,-34.65 -22.73,-34.43 -55.01,-70.12l-111.88 -123.59c-160.94,-156.79 -76.35,-216.66 -517.89,-195.3l-5.52 1745.79c12.44,-17.73 6.57,-16.71 17.74,-33.06 26.3,-38.48 -1.67,-9.88 30.49,-36.91l351.73 -946.85c32.21,178.4 -17.34,393.23 5,558.09l-8.51 463.89c34.61,-47.46 16.31,-978.34 16.9,-1030.86 50.2,33.58 33.03,43.85 97.81,79.19 -5.55,25.28 -11.38,21.68 13.12,15.16 -6.55,26.36 -11.92,21.64 14.37,15.8 -6.68,24.25 -13.14,19.93 9.78,19.69l10.4 18.62 11.17 13.05 -11.17 -13.05 -10.4 -18.62c3.95,-27.59 13.27,-27.2 -9.78,-19.69 7.17,-26.84 12.49,-22.08 -14.37,-15.8 6.57,-24.18 11.38,-19.54 -13.12,-15.16 -13.64,-28.26 -8.63,-9.02 -1.7,-14.86l13.17 -2.94c0.59,-0.1 4.2,0.45 6.08,-0.34 -22.32,-32.06 -8.29,-18.44 -42.34,-43.8 2.84,-2.79 6.3,-13.27 6.97,-9.73 0.67,3.56 7.04,-4.05 9.91,-6.87 3.4,-3.33 2.09,7.9 11.63,16.87l26.8 17.64c3.04,1.26 12.31,2.94 15.53,4.22l32.37 17.56c18.44,13.19 21.36,17.42 36.84,31.11 -3.53,-52.41 -9.42,-28.16 -14.59,-88.44 75.32,-37.28 95.04,-102.38 85.2,-137.5l-12.6 -29.8c2.9,-2.28 7.63,-9.17 8.98,-6.5l40.93 -31.96c7.92,-6.67 19.31,-17.46 20.85,-18.73 -28.01,-44.8 -43.46,-47.83 -64.9,-106.22zm81.22 94.18l12.65 13.59 10.33 18.02c-3.61,23.11 -6.68,14.56 21.04,14.56l-21.04 -14.56 -10.33 -18.02 -12.65 -13.59 -38.65 -47.31c20.5,41.53 1.98,19.01 38.65,47.31zm459.31 251.43l6.96 43.49c32.92,15.92 6.7,-14.29 31.32,21.64 21.23,-2.46 15.5,-6.23 11.72,16.14 22.54,-3.56 15.68,-7.17 13.93,17.61l6.21 22.1 13.9 13.35 10.39 19.39 11.29 8.29c21.36,30.43 14.47,20.72 36.08,32.76 41.5,-68.47 4.7,-29.72 17.07,-81 36.33,-150.62 -17.69,-154.96 33.26,-246.24 32.27,86.48 70.44,183.52 110.29,292.45 6.65,18.17 90.62,333.41 108.28,298.72 1.2,-2.36 4.93,6.75 7.39,10.13 0.74,-139.46 -29.97,-780.64 26.59,-853.28 59.86,-25.77 250.24,-13.44 326.86,-13 135.8,0.79 186.2,20.69 301.57,49.44 10.97,-56.46 -9.88,-37.16 47.51,-45.08 -34.94,-28.2 -1.65,-26.64 -71.68,-23.5 43.26,-2.77 69.16,4.82 109.28,9.41 7.61,0.88 61.02,5.97 63.5,6.04l31.02 -2.23c1.5,-3.45 6.67,-1.03 9.78,-2.26l-7.34 -32.21c-10.56,-21.83 -17.56,-7.36 -21.38,-39.8l115.52 -1c-0.72,-17.66 -0.37,-44.22 -2.18,-61.12l-10.98 -48.02 38.92 -7.97c-32.6,6.9 -28.62,16.33 -24.37,-13.58 -107.79,-69.19 -245.23,-92.24 -388.5,-124.13l-416.54 29.13c31.1,52.98 40.27,-6.7 25.67,39.09 -41.67,20.35 -104.02,15.99 -165.63,17.58 45.58,30.21 25.29,1.77 40.38,53.68 -50.2,2.09 -69.7,3.85 -96.78,31.98 -28.64,29.7 -52.88,63.48 -111.59,91.97 -34.82,16.92 -43.9,15.37 -60.68,7.19l-14.64 98.87c-0.63,-1.94 -3.36,6.63 -5.63,9.58 -53.35,-32.33 -9.97,-63.59 -78.63,-110.07 10.13,106.61 -18.51,455.65 0.88,501.29 -44.07,-3.61 -2.3,13.64 -31.4,10.35l-36.97 -36.32c-1.86,-7.04 -6.79,-7.6 -10.66,-10.85zm1539.1 788.51c208.64,-96.87 406,-715.17 114.9,-1138.32 -47.48,-69.02 -189.49,-217.64 -278.91,-245.94l-24.37 -13.58c-4.26,29.9 -8.24,20.48 24.37,13.58l-38.92 7.97 10.98 48.02c1.81,16.9 1.45,43.46 2.18,61.12l-115.52 1c3.82,32.43 10.82,17.96 21.38,39.8l7.34 32.21c-3.11,1.23 -8.27,-1.18 -9.78,2.26l-31.02 2.23c-2.48,-0.07 -55.88,-5.16 -63.5,-6.04 -40.12,-4.59 -66.02,-12.17 -109.28,-9.41 70.02,-3.14 36.74,-4.69 71.68,23.5 -57.39,7.92 -36.54,-11.38 -47.51,45.08 2.8,2.82 -5.99,-0.88 20.75,16.88 127.26,84.59 23,-3.16 174.36,134.47l136.2 111.57c189.88,249.38 198.61,567.13 134.67,873.59zm-1707.92 -701.71c-4.78,25.87 -8.27,16.83 21.8,16.83 -6.53,-24.68 1.64,-20.41 -21.8,-16.83 -28.72,-60.43 -197.04,-260.27 -246.48,-292.06 -27.72,0 -24.65,8.56 -21.04,-14.56l-10.33 -18.02 -12.65 -13.59c-36.67,-28.3 -18.15,-5.77 -38.65,-47.31 -23.3,-31.8 -12.61,-21.29 -42.56,-46.87 21.44,58.38 36.89,61.42 64.9,106.22 -1.54,1.26 -12.93,12.05 -20.85,18.73l-40.93 31.96c-1.35,-2.67 -6.08,4.22 -8.98,6.5l12.6 29.8c9.84,35.12 -9.88,100.22 -85.2,137.5 5.17,60.28 11.06,36.04 14.59,88.44 -15.48,-13.69 -18.4,-17.93 -36.84,-31.11l-32.37 -17.56c-3.23,-1.28 -12.49,-2.96 -15.53,-4.22l-26.8 -17.64c-9.54,-8.97 -8.24,-20.2 -11.63,-16.87 -2.87,2.82 -9.24,10.44 -9.91,6.87 -0.67,-3.55 -4.14,6.94 -6.97,9.73 34.06,25.36 20.03,11.73 42.34,43.8 -1.87,0.79 -5.48,0.24 -6.08,0.34l-13.17 2.94c-6.92,5.84 -11.94,-13.41 1.7,14.86 24.5,-4.38 19.69,-9.02 13.12,15.16 26.86,-6.28 21.54,-11.04 14.37,15.8 23.05,-7.51 13.73,-7.9 9.78,19.69l10.4 18.62 11.17 13.05 233.02 270.81c24.15,27.64 4.54,13.52 35.44,33.02l28.21 12.83c2.08,0.7 6.53,2.14 8.85,2.84l74.1 17.54c-27.57,-37.21 -2.46,-16.22 -36.98,-32.94l-32.7 -0.36c26.85,-51.44 14.62,-58.08 58.22,-110.46 42.29,-50.82 117.85,-131.8 140.46,-185.39 -32.06,-42.8 15.1,-6.85 -70.05,-85.13 35.59,17.71 18.83,27.64 44.42,9.81l9 7.23zm175.78 -43.31l-6.96 -43.49 -0.12 -659.84c42.36,30.56 73.89,144.25 78.28,195.37 68.65,46.48 25.27,77.74 78.63,110.07 2.26,-2.94 5,-11.52 5.63,-9.58l14.64 -98.87c16.78,8.17 25.86,9.73 60.68,-7.19 58.71,-28.48 82.95,-62.27 111.59,-91.97 27.08,-28.13 46.58,-29.89 96.78,-31.98 -15.09,-51.91 5.2,-23.47 -40.38,-53.68 61.61,-1.59 123.96,2.77 165.63,-17.58 14.6,-45.79 5.43,13.9 -25.67,-39.09l416.54 -29.13 -925.63 -3.33c-53.74,78.87 -29.16,265.4 -29.36,383.03 -0.22,131.97 3.83,266.45 -0.27,397.24zm-1189.55 897.71c-32.16,27.03 -4.19,-1.57 -30.49,36.91 -11.18,16.34 -5.3,15.33 -17.74,33.06l4.52 45.56c74.83,4.03 150.26,0.6 225.27,1.15 128.22,0.91 147.67,14.13 166.66,-41.53l8.51 -463.89 -36.62 -82.4c-4.78,70.51 5.67,45.98 -24.55,92.07 -1.59,2.43 -4.38,5.61 -6.01,8.04l-11.67 17.41c-1.72,2.65 -3.7,6.48 -5.4,9.13 -10.72,16.6 -5.25,11.47 -22.86,33.24 -89.38,110.56 -28.85,72.62 -79.19,149.58l-24.01 33.4c-42.13,66.95 -84.78,166.11 -122.38,189.58 -9.81,6.13 10.15,5.57 -27.33,12.44l3.29 -73.73zm0 0l-3.29 73.73c37.48,-6.87 17.52,-6.31 27.33,-12.44 37.6,-23.47 80.25,-122.63 122.38,-189.58l24.01 -33.4c50.33,-76.96 -10.2,-39.02 79.19,-149.58 17.61,-21.78 12.14,-16.65 22.86,-33.24 1.7,-2.65 3.68,-6.48 5.4,-9.13l11.67 -17.41c1.64,-2.43 4.42,-5.6 6.01,-8.04 30.22,-46.09 19.77,-21.56 24.55,-92.07l36.62 82.4c-22.34,-164.86 27.22,-379.69 -5,-558.09l-351.73 946.85zm1324.38 -746.43c65.97,73.26 213.94,232.31 250.73,303.84 31.64,-23.2 29.65,30.28 25.57,-29.78 -2.46,-3.38 -6.2,-12.49 -7.39,-10.13 -17.66,34.7 -101.63,-280.55 -108.28,-298.72 -39.85,-108.93 -78.02,-205.97 -110.29,-292.45 -50.95,91.28 3.07,95.62 -33.26,246.24 -12.38,51.28 24.43,12.53 -17.07,81zm-141.79 -194.78c3.87,3.26 8.8,3.82 10.66,10.85l36.97 36.32c29.11,3.29 -12.66,-13.97 31.4,-10.35 -19.38,-45.64 9.26,-394.69 -0.88,-501.29 -4.39,-51.12 -35.92,-164.8 -78.28,-195.37l0.12 659.84zm38.28 65.14c-5.11,23.37 -10.87,19.62 11.72,16.14 -3.95,23.11 -9.09,17.64 13.93,17.61l6.21 22.1 13.9 13.35 10.39 19.39 11.29 8.29 -11.29 -8.29 -10.39 -19.39 -13.9 -13.35 -6.21 -22.1c1.75,-24.79 8.61,-21.18 -13.93,-17.61 3.78,-22.37 9.51,-18.61 -11.72,-16.14 -24.61,-35.93 1.61,-5.72 -31.32,-21.64l31.32 21.64z"/>
 </g>
</svg>
